<svg width="79" height="41" viewBox="0 0 79 41" fill="none" xmlns="http://www.w3.org/2000/svg">
<path fill-rule="evenodd" clip-rule="evenodd" d="M73.4274 0.0106783C72.4292 0.0467143 71.6183 0.132791 69.2211 0.457172C65.6504 0.940328 63.9188 1.09745 61.1749 1.18719C57.7132 1.3004 53.2935 1.31352 48.2154 1.22564C45.841 1.18455 41.8731 1.1062 41.0167 1.0835C40.7967 1.07768 40.214 1.06466 39.7217 1.05457C39.2294 1.04449 38.4153 1.02752 37.9125 1.01688C26.797 0.781458 20.8986 0.917822 16.1069 1.52102C11.9126 2.04902 8.88919 2.99225 7.16571 4.31046C5.85372 5.31393 4.65994 6.75898 3.67075 8.54099C3.28937 9.228 2.83445 10.2069 2.53288 10.9894C1.32657 14.1196 0.728658 17.7587 0.729248 21.9667C0.729858 26.1467 1.2187 29.6144 2.2688 32.8876C2.9222 34.9242 3.84916 36.9839 4.89497 38.7228C6.11813 40.7566 7.01195 41.2482 8.84379 40.8948C9.51824 40.7647 9.93416 40.6386 12.4409 39.8042C14.5523 39.1015 15.2464 38.879 16.2831 38.5726C20.8665 37.2183 25.6575 36.2472 31.3137 35.5261C32.3339 35.396 33.1586 35.3027 35.5129 35.0506C43.2882 34.2183 48.6237 33.435 53.6239 32.3917C59.6798 31.1282 64.7996 29.5121 68.8402 27.5885C69.0916 27.4688 69.4344 27.309 69.602 27.2334C70.105 27.0063 70.4036 26.86 70.7446 26.6737C72.834 25.5317 74.5987 23.9202 75.9095 21.9572C77.5838 19.4499 78.3919 16.6575 78.6471 12.4975C78.7187 11.3302 78.7485 9.88124 78.7164 9.11976C78.6332 7.14473 78.4301 5.44825 78.0473 3.53124C77.9744 3.16595 77.8978 2.78168 77.8771 2.67731C77.7208 1.88713 77.2446 1.13863 76.5898 0.653615C76.3688 0.489982 76.14 0.382899 75.7305 0.251526C75.0464 0.0320457 74.479 -0.0272743 73.4274 0.0106783ZM17.5231 4.06442C17.5642 4.15433 17.545 4.27724 17.4297 4.66164C16.8077 6.73444 16.2992 8.80988 15.907 10.8751C15.8017 11.4298 15.6025 12.5809 15.6024 12.6358C15.6023 12.6553 15.6663 12.5903 15.7534 12.4823C16 12.177 16.2178 11.9381 16.5625 11.5955C17.5721 10.5919 18.7762 9.69368 19.7064 9.2503C20.0878 9.06855 20.7567 8.86207 21.2121 8.78553C21.4622 8.7435 21.8859 8.74346 22.0751 8.78548C22.749 8.93509 23.1665 9.42811 23.3785 10.3248C23.4486 10.6212 23.4675 10.807 23.4673 11.1972C23.4667 12.2644 23.2367 13.2631 22.7724 14.2149C22.476 14.8227 22.1228 15.3381 21.6215 15.8946L21.499 16.0305L21.5739 15.9984C21.7829 15.9087 22.1567 15.7736 22.384 15.7055C22.8883 15.5545 23.217 15.5059 23.6386 15.5198C23.8846 15.5279 23.9627 15.538 24.1048 15.5802C24.5094 15.7002 24.816 15.9439 25.0244 16.311C25.3049 16.8052 25.3832 17.227 25.3662 18.1525C25.3506 19.0053 25.2354 19.7592 24.9822 20.6654C24.1356 23.6955 22.1477 26.3512 19.3315 28.2143C17.3301 29.5383 14.848 30.5149 12.1067 31.0568L11.8011 31.1172L11.7002 31.4236C11.2037 32.932 10.3596 34.3218 9.25929 35.4426C9.07201 35.6334 8.99963 35.6733 8.9189 35.6303C8.85198 35.5946 8.8706 35.5109 8.9985 35.2724C9.22673 34.8469 9.35872 34.5403 9.53025 34.0369C10.0638 32.4711 10.4261 30.2702 10.7643 26.54C10.8902 25.152 10.9885 23.9116 11.2029 21.0084C11.3936 18.4268 11.4526 17.7201 11.5558 16.7862C11.7666 14.8785 12.1132 13.3371 12.7528 11.4633C13.575 9.0549 14.9727 6.50128 16.3416 4.90702C16.5799 4.62944 16.9754 4.22543 17.1021 4.13015C17.308 3.9753 17.4707 3.94989 17.5231 4.06442ZM71.4588 8.1051C71.9025 8.21852 72.2233 8.51687 72.4393 9.01716C72.5118 9.18527 72.5755 9.41467 72.5969 9.58506C72.6047 9.64748 72.6171 9.69854 72.6244 9.69854C72.6318 9.69854 72.7346 9.62203 72.8529 9.52853C73.1291 9.31021 73.549 8.89047 73.7917 8.58991C74.0175 8.31037 74.0658 8.26913 74.132 8.29921C74.2019 8.33094 74.2275 8.43335 74.2135 8.62505C74.1804 9.07676 73.9035 9.70841 73.5182 10.2109C73.3251 10.4627 72.9535 10.8142 72.7062 10.9791C72.6538 11.014 72.6086 11.0442 72.6058 11.0462C72.6029 11.0482 72.5799 11.1817 72.5546 11.3428C72.3857 12.4176 72.0979 13.2061 71.6057 13.943C71.0972 14.7043 70.6519 15.1107 69.9638 15.4414C69.2619 15.7788 68.5387 15.8679 67.9887 15.685C67.6551 15.5741 67.4433 15.4432 67.2269 15.2143C67.0676 15.0458 66.9437 14.8374 66.8756 14.6232L66.8232 14.4584L66.6912 14.6403C66.151 15.3845 65.4846 15.9898 64.7042 16.4449C64.119 16.7862 63.5791 16.9445 63.0032 16.9436C62.7089 16.9431 62.558 16.9192 62.331 16.8371C61.9117 16.6854 61.5821 16.3242 61.4316 15.8511C61.4089 15.7799 61.3843 15.7199 61.3769 15.7178C61.3695 15.7157 61.3103 15.788 61.2454 15.8783C61.0469 16.1545 60.8296 16.4033 60.5338 16.6928C59.8654 17.3471 59.0948 17.8355 58.4278 18.0274C58.0909 18.1243 57.9522 18.1427 57.5661 18.1414C57.1487 18.1401 57.0148 18.1137 56.7419 17.9791C56.554 17.8864 56.3378 17.6945 56.2199 17.5158L56.1405 17.3954L56.033 17.5605C55.6627 18.129 55.0941 18.6137 54.4926 18.8737C54.2315 18.9865 54.0717 19.0161 53.7287 19.015C53.3819 19.0139 53.248 18.987 53.005 18.87C52.7163 18.731 52.4995 18.4628 52.4317 18.1607L52.4091 18.0603L52.3151 18.2146C51.9865 18.7537 51.4357 19.2962 50.888 19.6203C50.569 19.809 50.227 19.8912 49.8341 19.8734C49.6996 19.8673 49.5458 19.8474 49.4602 19.8251C49.055 19.7193 48.7449 19.4435 48.662 19.1153L48.6392 19.0249L48.5314 19.2012C48.1816 19.7728 47.7062 20.2117 47.1166 20.5072C46.6882 20.7219 46.2035 20.7657 45.7726 20.6286C45.42 20.5165 45.1694 20.2816 45.0633 19.9639L45.0216 19.8391L44.8379 20.1114C44.4913 20.6248 44.2411 20.9101 43.9488 21.1247C43.5632 21.408 43.1661 21.5408 42.6406 21.5623C42.19 21.5807 41.8399 21.5119 41.5429 21.3467C41.3804 21.2563 41.1652 21.0491 41.076 20.8971L41.0035 20.7735L40.7348 21.1092C40.0651 21.946 39.5911 22.2572 38.8762 22.3296C38.2449 22.3935 37.7055 22.1546 37.4828 21.7127C37.4414 21.6304 37.4021 21.5299 37.3956 21.4893C37.3891 21.4488 37.3773 21.4116 37.3693 21.4067C37.3614 21.4018 37.3205 21.4553 37.2785 21.5257C37.0784 21.8608 36.7272 22.2661 36.4005 22.5391C36.1581 22.7415 35.8049 22.9734 35.6259 23.0477C35.1334 23.252 34.5369 23.2385 34.1037 23.0133C33.8748 22.8943 33.6812 22.6596 33.6187 22.4256L33.5968 22.3436L33.5022 22.4987C33.1678 23.0473 32.6627 23.5137 32.0963 23.797C31.5601 24.0651 30.9707 24.0874 30.5805 23.8545C30.3541 23.7193 30.1735 23.5019 30.0647 23.2337L30.0051 23.087L29.9694 23.1673C29.5552 24.0972 28.5399 24.8257 27.581 24.8809C27.1928 24.9033 26.8878 24.8482 26.5812 24.7002C26.2017 24.517 25.9254 24.1811 25.7738 23.7185C25.5494 23.034 25.5852 22.2392 25.8876 21.1887C26.3586 19.5527 27.3636 18.1692 28.638 17.4026C29.0349 17.1638 29.6241 16.9549 30.171 16.859C30.3996 16.8189 30.8719 16.829 31.0528 16.8779C31.4104 16.9744 31.6753 17.1883 31.8324 17.5073C31.9795 17.8062 32.031 18.0953 32.0115 18.513C31.9992 18.7763 31.9881 18.8464 31.793 19.8983C31.6134 20.8661 31.5613 21.2662 31.5613 21.6754C31.5613 22.1365 31.6722 22.4312 31.8747 22.5083C31.9971 22.5548 32.2358 22.5392 32.3932 22.4743C32.8299 22.2944 33.2288 21.8046 33.4247 21.2077C33.447 21.1398 33.5513 20.6317 33.6565 20.0786C34.2962 16.7146 34.2861 16.7625 34.4063 16.5246C34.4805 16.3777 34.6051 16.2529 34.7147 16.2154C34.8278 16.1768 34.9972 16.1869 35.2082 16.2449C35.5086 16.3275 35.6878 16.4356 35.8525 16.6336C35.9419 16.741 36.0453 16.9534 36.0729 17.086C36.1194 17.31 36.1058 17.4028 35.7965 18.9606C35.3949 20.9836 35.4038 20.9313 35.401 21.2836C35.3984 21.6143 35.4182 21.7139 35.5035 21.7989C35.684 21.9788 36.0758 21.7025 36.517 21.0843C37.0034 20.403 37.416 19.5427 37.6069 18.812C37.7409 18.2988 37.8959 17.5058 37.999 16.8052C38.1237 15.9579 38.2739 15.5972 38.5516 15.4782C38.7339 15.4 39.0678 15.4471 39.3694 15.5937C39.5379 15.6756 39.7609 15.898 39.8419 16.0651C39.9974 16.3855 39.9985 16.6057 39.8479 17.2537C39.8161 17.3908 39.7514 17.7153 39.7041 17.9748C39.6569 18.2343 39.5715 18.6857 39.5142 18.978C39.3206 19.9665 39.2742 20.2761 39.2742 20.579C39.2742 21.0012 39.3991 21.119 39.6907 20.9717C39.992 20.8195 40.472 20.3095 40.6157 19.9888C40.6576 19.8953 40.6612 19.8587 40.6711 19.4239C40.6769 19.1682 40.6947 18.8656 40.7106 18.7515C40.9476 17.0535 41.7919 15.5341 43.1214 14.4129C43.508 14.0869 43.7173 13.9575 44.0542 13.8362C44.4136 13.7068 44.8785 13.6613 45.2445 13.7197C45.3492 13.7364 45.4516 13.7522 45.472 13.7548C45.5056 13.759 45.5161 13.7247 45.581 13.3989C45.7495 12.5522 45.9163 11.4853 46.0732 10.2489C46.1249 9.84181 46.1807 9.45754 46.1971 9.39492C46.3087 8.97048 46.5145 8.8359 46.9521 8.9011C47.2498 8.94545 47.4362 9.03731 47.6312 9.23575C47.7374 9.34376 47.842 9.52663 47.8906 9.68905C48.0034 10.0661 47.7778 11.7637 47.0746 15.8279C46.7433 17.7432 46.6937 18.1029 46.6926 18.5984C46.6919 18.9094 46.6955 18.948 46.733 19.0288C46.7884 19.1482 46.8569 19.1819 47.0651 19.1923C47.64 19.2212 48.1964 18.7042 48.46 17.8963C48.4873 17.8128 48.6816 16.8393 48.8919 15.733C49.1022 14.6267 49.2959 13.6404 49.3223 13.5412C49.391 13.2841 49.4806 13.1075 49.5939 13.006C49.7573 12.8596 49.9212 12.842 50.254 12.9351C50.5166 13.0086 50.6573 13.0835 50.8045 13.228C51.0657 13.4844 51.1793 13.8297 51.12 14.1869C51.107 14.2649 50.9603 15.0162 50.7939 15.8564C50.6275 16.6965 50.4776 17.4821 50.4608 17.6022C50.4182 17.9061 50.4301 18.2795 50.4862 18.4037C50.5411 18.5251 50.6253 18.5678 50.7428 18.5338C51.2463 18.388 52.1038 17.1159 52.5283 15.8848C52.7062 15.3693 52.8409 14.72 53.0811 13.2211C53.2088 12.4245 53.4445 12.092 53.8598 12.1226C54.04 12.1358 54.3467 12.2357 54.4894 12.3276C54.7938 12.5236 54.973 12.8208 54.9986 13.172C55.011 13.3426 54.9817 13.5472 54.8892 13.935C54.858 14.0661 54.7943 14.3834 54.7477 14.6401C54.7012 14.8968 54.6153 15.3502 54.5568 15.6476C54.3716 16.5902 54.3355 16.8247 54.3242 17.1578C54.3155 17.4154 54.319 17.4785 54.3468 17.5618C54.3876 17.6842 54.443 17.7256 54.5417 17.7071C54.8359 17.6521 55.4787 17.0722 55.815 16.5585L55.8957 16.4351L55.9079 16.1695C55.9739 14.7364 56.5328 13.2327 57.3925 12.1749C57.5633 11.9649 58.034 11.4916 58.2484 11.3144C58.7775 10.8771 59.3661 10.5709 59.8995 10.4553C60.1435 10.4025 60.5999 10.4065 60.7999 10.4633C61.1668 10.5675 61.3594 10.7449 61.4518 11.0638C61.4995 11.2286 61.4821 11.5751 61.4148 11.8011C61.2917 12.2141 61.0209 12.6179 60.7859 12.739C60.6951 12.7857 60.4937 12.7918 60.4135 12.7502C60.2598 12.6704 60.2141 12.4923 60.2707 12.1945C60.3175 11.9487 60.3131 11.7774 60.257 11.6661C60.191 11.5352 60.1319 11.501 59.9745 11.5027C59.8641 11.5039 59.8218 11.5149 59.7046 11.5727C59.3525 11.7465 59.0341 12.149 58.6803 12.8676C58.4038 13.4291 58.2209 13.9191 58.0704 14.5011C57.9516 14.9607 57.915 15.1983 57.9044 15.5812C57.8875 16.1884 57.9729 16.4778 58.2122 16.6243C58.3022 16.6794 58.3148 16.6818 58.5169 16.681C58.7084 16.6802 58.7464 16.6737 58.9308 16.6109C59.1669 16.5304 59.3147 16.4585 59.6022 16.2842C60.0226 16.0294 60.4739 15.6578 60.7967 15.3007C61.0001 15.0756 61.325 14.6497 61.3355 14.5944C61.3394 14.5736 61.365 14.4156 61.3923 14.2434C61.5872 13.0128 62.1709 11.7127 62.913 10.8561C63.824 9.80449 64.8598 9.20852 65.7741 9.20981C66.4013 9.2107 66.7651 9.43213 66.8815 9.88384C66.9206 10.0354 66.907 10.342 66.8522 10.5442C66.7371 10.9692 66.4681 11.3848 66.2215 11.5185C66.102 11.5833 65.9268 11.5942 65.8283 11.543C65.6867 11.4693 65.6369 11.255 65.6956 10.9721C65.757 10.6763 65.7301 10.4852 65.6103 10.3659L65.5365 10.2923L65.3886 10.2995C65.1674 10.3104 65.025 10.3864 64.7915 10.6179C64.1932 11.2115 63.5525 12.7015 63.3536 13.9621C63.3113 14.2302 63.3108 14.7541 63.3527 14.945C63.4744 15.4999 63.8283 15.62 64.5236 15.3426C64.797 15.2335 65.2481 14.9525 65.6122 14.6644C65.9749 14.3774 66.4371 13.8793 66.6954 13.4969C66.7868 13.3617 66.7876 13.3591 66.8482 13.0099C67.021 12.0152 67.2052 11.4113 67.5459 10.7233C67.7913 10.2276 68.0364 9.86143 68.3797 9.47756C68.737 9.07811 69.2387 8.67103 69.6686 8.43178C69.9422 8.27955 70.3561 8.13804 70.6875 8.08343C70.8836 8.05109 71.2924 8.06259 71.4588 8.1051ZM70.4703 9.28068C70.3439 9.34059 70.0872 9.59119 69.9756 9.76355C69.8479 9.96081 69.8134 10.1201 69.8696 10.2542C69.955 10.4584 70.1391 10.5335 70.5542 10.5335C70.7554 10.5335 70.8523 10.5248 70.9493 10.4982L71.0779 10.4629V10.305C71.0779 10.0151 71.0053 9.63609 70.9166 9.4632C70.807 9.24966 70.6614 9.19009 70.4703 9.28068ZM69.2666 10.9174C69.0016 11.5984 68.8832 12.2331 68.8832 12.972C68.8832 13.6665 68.9653 14.1113 69.1414 14.3699C69.2658 14.5525 69.3747 14.5843 69.5619 14.4925C69.958 14.2981 70.5471 13.2939 70.8112 12.3625C70.8733 12.1438 70.9827 11.6503 70.9827 11.5892C70.9827 11.5804 70.8691 11.5683 70.7303 11.5624C70.1984 11.5398 69.7464 11.3487 69.4255 11.0106L69.2871 10.8648L69.2666 10.9174ZM6.1619 11.4662C6.37597 11.5765 6.79923 12.0663 7.08558 12.5351C7.70731 13.553 8.20392 15.0809 8.67085 17.4124C9.05339 19.3225 9.17238 20.2546 9.26436 22.0616C9.29687 22.7004 9.297 25.2546 9.26453 25.9138C9.17961 27.639 9.06552 28.8473 8.88738 29.9083C8.78641 30.5098 8.64459 31.1223 8.58115 31.2309C8.53594 31.3084 8.44885 31.3254 8.39599 31.2672C8.36382 31.2318 8.36148 31.147 8.35698 29.8478C8.35435 29.0879 8.34255 28.3167 8.33076 28.134C8.2495 26.8764 8.18254 26.1708 8.05968 25.2781C7.84056 23.6857 7.57174 22.4038 6.67279 18.6648C6.00153 15.8728 5.83725 15.0478 5.73392 13.9492C5.70187 13.6085 5.70185 12.6329 5.73388 12.3552C5.77222 12.0229 5.83422 11.6594 5.86614 11.5799C5.89766 11.5014 5.98515 11.4351 6.05734 11.4349C6.08142 11.4349 6.12847 11.449 6.1619 11.4662ZM20.1603 11.5857C18.3944 11.9485 17.0905 12.7647 16.1191 14.1151C15.725 14.6631 15.3462 15.428 15.0878 16.1979C14.8935 16.7767 14.7114 17.5591 14.6021 18.2853C14.539 18.7043 14.5333 18.8663 14.5791 18.936C14.6471 19.0396 14.7894 19.008 15.4594 18.7404C17.2677 18.0185 18.5182 17.1386 19.417 15.9559C20.1632 14.9742 20.6708 13.7395 20.9166 12.3082C20.9902 11.88 20.9545 11.7047 20.7731 11.6026C20.6676 11.5432 20.4028 11.5359 20.1603 11.5857ZM73.8844 13.0765C74.3547 13.1985 74.6572 13.6423 74.5851 14.1044C74.4735 14.8202 73.623 15.1409 73.0469 14.6844C72.701 14.4103 72.6089 13.8571 72.8475 13.4866C73.0686 13.1432 73.4937 12.9751 73.8844 13.0765ZM73.4489 13.275C73.2291 13.3477 73.0529 13.5283 72.9894 13.7459C72.9409 13.9122 72.9598 14.1325 73.0358 14.2863C73.1926 14.6037 73.554 14.7669 73.8884 14.6711C74.5423 14.4838 74.6147 13.5968 73.9994 13.3099C73.8342 13.2329 73.6179 13.2192 73.4489 13.275ZM73.9258 13.5442C74.0189 13.5871 74.0678 13.6634 74.0678 13.7657C74.0678 13.85 74.0024 13.9467 73.9299 13.9697L73.8889 13.9827L73.9274 14.0137C73.9902 14.0644 74.0238 14.1304 74.066 14.2863C74.0879 14.3673 74.1059 14.4377 74.1059 14.4428C74.1059 14.4479 74.0547 14.4521 73.9922 14.4521H73.8785L73.8373 14.3145C73.7814 14.1276 73.7458 14.0916 73.617 14.0916H73.5155V14.2718V14.4521H73.4108H73.306V13.9886V13.525L73.406 13.514C73.6857 13.4831 73.8089 13.4903 73.9258 13.5442ZM73.5473 13.6678C73.5403 13.6747 73.5346 13.7345 73.5346 13.8006V13.9208H73.6367C73.7955 13.9208 73.8771 13.8369 73.8206 13.7317C73.7899 13.6744 73.588 13.6272 73.5473 13.6678ZM44.9039 14.8974C44.4902 15.0669 43.9375 15.5995 43.5819 16.1712C43.0067 17.096 42.6522 18.3494 42.689 19.3282C42.709 19.8625 42.81 20.1208 43.0239 20.1846C43.3773 20.2901 44.0072 19.6335 44.4729 18.6743C44.9267 17.7395 45.2363 16.4874 45.267 15.4629C45.2771 15.1263 45.2744 15.0684 45.2455 14.9929C45.2109 14.9026 45.1423 14.8502 45.0598 14.8511C45.0357 14.8513 44.9655 14.8722 44.9039 14.8974ZM29.8185 18.1667C29.5098 18.2762 29.0237 18.687 28.7115 19.1023C28.1853 19.8024 27.8346 20.6915 27.6828 21.7105C27.6577 21.879 27.6489 22.0542 27.649 22.3842C27.649 22.8798 27.6665 22.9967 27.7731 23.2146C27.8512 23.3743 27.9298 23.428 28.0854 23.4277C28.2271 23.4274 28.3642 23.363 28.5559 23.2067C28.7144 23.0775 28.7919 22.9918 29.0041 22.7107C29.8178 21.6333 30.2697 20.2694 30.2654 18.904C30.264 18.443 30.2269 18.2689 30.1123 18.1855C30.0415 18.1341 29.9305 18.1269 29.8185 18.1667ZM20.7823 18.7224C19.8203 18.8653 19.1382 19.0429 18.3637 19.3521C17.409 19.7332 16.501 20.2799 15.7065 20.952C15.1926 21.3867 14.8927 21.7066 14.6253 22.1054C13.9303 23.1419 13.384 24.6589 12.8494 27.0364C12.6911 27.7405 12.4409 28.9879 12.4409 29.0732C12.4409 29.1718 12.4768 29.2323 12.5467 29.2515C12.6156 29.2704 12.6858 29.2599 12.9753 29.1872C15.7478 28.491 18.2804 26.843 19.9159 24.6708C20.9804 23.2571 21.6323 21.7669 21.9705 19.9742C22.1344 19.1055 22.1019 18.8495 21.8107 18.7153C21.7377 18.6817 21.6826 18.6752 21.4393 18.6715C21.2058 18.668 21.0858 18.6773 20.7823 18.7224ZM41.3957 24.2845C41.511 24.3368 41.4586 24.5085 41.2235 24.8485C40.6612 25.662 39.6364 26.5293 38.3408 27.2881C37.9557 27.5137 37.0797 27.9487 36.6175 28.1439C34.5827 29.0031 32.3508 29.5249 29.6378 29.7755C24.1625 30.2813 19.5593 31.2667 16.0117 32.6924C15.0635 33.0735 14.0319 33.5792 13.3455 33.9994C13.1014 34.1488 13.0503 34.1663 12.9836 34.1227C12.8943 34.0644 12.9215 33.9921 13.1052 33.7986C14.8473 31.9648 17.6518 30.4889 21.4298 29.4178C23.217 28.9111 24.9902 28.5232 28.2952 27.916C30.6721 27.4793 31.4202 27.3317 32.6373 27.0594C35.3658 26.449 38.1818 25.5577 40.7691 24.4855C41.3532 24.2434 41.3252 24.2524 41.3957 24.2845ZM28.3714 32.0623C29.4711 32.1135 30.5056 32.2098 31.4375 32.3477C31.9112 32.4178 32.351 32.4939 32.4327 32.5198C32.559 32.56 32.553 32.6578 32.42 32.7254C32.2904 32.7913 31.8656 32.9547 31.5243 33.07C29.8375 33.6399 28.0737 33.827 26.286 33.6258C26.038 33.5979 25.8025 33.5601 25.0101 33.4211C24.3724 33.3092 23.642 33.2258 22.9152 33.1819C22.5122 33.1576 21.2687 33.1575 20.8489 33.1819C19.6828 33.2495 18.6003 33.4111 17.4547 33.6888C17.0642 33.7834 17.0032 33.785 16.9724 33.7016C16.9358 33.6023 17.0669 33.5148 17.5257 33.3325C19.2363 32.653 22.4328 32.1497 25.716 32.043C26.2938 32.0242 27.7844 32.0351 28.3714 32.0623Z" fill="#979AA5"/>
</svg>
