<svg width="106" height="19" viewBox="0 0 106 19" fill="none" xmlns="http://www.w3.org/2000/svg">
<path fill-rule="evenodd" clip-rule="evenodd" d="M1.2625 0.252243C0.330874 0.812182 0.0363201 2.04408 0.619685 2.94039C1.03567 3.5796 1.54422 3.83386 2.40592 3.83386C4.24165 3.83386 5.10909 1.89868 3.86028 0.58941C3.27067 -0.0287542 2.00344 -0.193303 1.2625 0.252243ZM22.4156 0.411571C22.1834 0.448911 21.7085 0.548747 21.36 0.633395L20.7267 0.787184V6.91835C20.7267 13.5799 20.7865 14.1237 21.6902 15.6791C22.2694 16.6759 23.5472 17.7861 24.6699 18.2676C26.3747 18.9987 28.6437 19.0274 30.3054 18.3386L31.03 18.0385L30.1842 16.9917C29.719 16.4161 29.228 15.7449 29.0929 15.5002C28.861 15.0799 28.8117 15.064 28.2072 15.2127C26.9611 15.519 25.5714 14.8918 24.9443 13.7403C24.654 13.2071 24.6113 12.8046 24.6113 10.5971V8.06544L26.0891 8.01972L27.5669 7.97399L27.7598 6.94557C27.8659 6.37993 27.961 5.57886 27.9709 5.16559L27.9892 4.41405H26.3002H24.6113V2.3572V0.300342L23.7246 0.32186C23.237 0.333727 22.6479 0.374073 22.4156 0.411571ZM47.4966 0.40983C47.3108 0.44986 46.8739 0.55112 46.5255 0.634818L45.8921 0.787184V9.8788V18.9703H47.75H49.6078V9.6353V0.300342L48.7211 0.318695C48.2335 0.328821 47.6824 0.369801 47.4966 0.40983ZM52.9013 0.40983C52.7155 0.44986 52.2785 0.55112 51.9301 0.634818L51.2968 0.787184V6.87753C51.2968 12.6242 51.3165 13.0229 51.6475 13.9433C52.7449 16.9949 55.5661 18.8612 59.043 18.8354C63.6971 18.801 67.3099 14.7828 66.5007 10.5413C65.653 6.09751 60.9047 3.43056 56.4481 4.8952C55.9836 5.04772 55.4705 5.22319 55.308 5.28489C55.0337 5.38916 55.0125 5.21322 55.0125 2.84879V0.300342L54.1258 0.318695C53.6382 0.328821 53.087 0.369801 52.9013 0.40983ZM2.62194 4.58477C2.09296 4.65739 1.40893 4.77796 1.10188 4.85248L0.543682 4.98791L0.499769 11.979L0.455687 18.9703H2.39984H4.34383V11.6922V4.41405L3.96381 4.43335C3.75489 4.44395 3.15092 4.51215 2.62194 4.58477ZM11.4003 4.57702C9.41593 4.89029 7.26927 6.41553 6.45688 8.08981C5.80782 9.4274 5.6781 10.6514 5.7308 14.9357L5.77944 18.8911L7.67208 18.9358L9.56472 18.9805L9.61438 14.4937L9.66403 10.007L10.1408 9.33247C11.0569 8.03633 12.8801 7.70249 14.2853 8.57364C15.5041 9.32914 15.5686 9.61821 15.6274 14.5797L15.6794 18.9703H17.5275H19.3755V14.4107C19.3755 9.30367 19.2926 8.78408 18.2404 7.29903C17.2083 5.8423 15.6806 4.92399 13.7287 4.58699C12.6239 4.39633 12.5478 4.39601 11.4003 4.57702ZM35.6574 4.64917C34.2258 4.94092 32.9868 5.56842 31.8674 6.56869C29.3556 8.81303 28.8166 12.0776 30.4564 15.1138C31.0099 16.1388 32.5075 17.5189 33.6592 18.0656C36.7738 19.5441 40.5814 18.881 42.8773 16.4603C43.5765 15.723 44.5406 14.0493 44.5408 13.5721C44.5409 13.2883 43.1325 12.8533 41.6981 12.6942C40.9148 12.6073 40.8666 12.6237 40.7619 13.0147C40.5025 13.983 39.0194 15.0603 37.6669 15.2629C37.0121 15.3609 35.5817 15.1032 35.5983 14.8899C35.603 14.8281 37.5402 13.3973 39.9032 11.7107L44.1994 8.64374L43.8213 8.01339C43.2587 7.0753 41.7873 5.78502 40.7241 5.29739C39.7798 4.86419 37.893 4.4112 37.1095 4.4294C36.8773 4.43478 36.2239 4.53367 35.6574 4.64917ZM73.4518 4.58335C70.8565 5.0618 68.6202 7.08685 68.0275 9.49527C67.9336 9.8769 67.8549 12.1649 67.8526 14.5797L67.8485 18.9703H69.7908H71.7331V14.6036C71.7331 10.9068 71.775 10.1541 72.0065 9.697C72.5906 8.54406 74.0711 7.85438 75.3019 8.16212C75.9688 8.32888 75.9714 8.32777 76.301 7.72242C76.4828 7.38874 76.9766 6.71868 77.3984 6.23358L78.1653 5.3515L77.4122 5.03934C76.6258 4.71356 75.1519 4.40155 74.5391 4.43146C74.3427 4.44095 73.8534 4.5093 73.4518 4.58335ZM83.0491 4.57417C80.6107 4.96845 78.5734 6.35651 77.473 8.37271C75.5712 11.858 77.0503 16.3024 80.6839 18.0206C82.9989 19.1153 85.1324 19.1395 87.8204 18.1013C88.0646 18.0069 88.116 18.0725 88.116 18.4787V18.9703H90.0582H92.0005V15.0225C92.0005 12.7272 91.9217 10.7238 91.8122 10.2364C91.1897 7.46294 88.8003 5.24265 85.797 4.64648C84.5491 4.39886 84.1917 4.38937 83.0491 4.57417ZM96.9233 4.58414C94.2453 5.07747 92.6401 7.64727 93.4267 10.1821C93.6485 10.8968 93.9064 11.2819 94.5873 11.9162C95.734 12.9839 96.6757 13.2743 98.9915 13.2743C100.272 13.2743 100.803 13.337 101.083 13.5207C101.561 13.8341 101.58 14.5847 101.121 15.0148C100.806 15.31 100.558 15.3312 97.4272 15.3312H94.0712L93.8836 16.241C93.7804 16.7413 93.6451 17.5668 93.5831 18.0754L93.4704 19L97.5067 18.9294C99.9423 18.8867 101.793 18.7842 102.172 18.6709C103.746 18.2008 105.114 16.578 105.291 14.9717C105.442 13.5993 104.997 12.4549 103.922 11.4471C102.786 10.3838 101.886 10.11 99.5233 10.11C98.2534 10.11 97.7224 10.0471 97.4429 9.86361C96.9651 9.55018 96.9461 8.79958 97.4052 8.36954C97.7171 8.07731 97.9681 8.0531 100.691 8.0531H103.638L103.824 7.45978C103.926 7.13353 104.055 6.31474 104.109 5.64025L104.209 4.41405L100.934 4.43146C99.1325 4.44095 97.3277 4.50962 96.9233 4.58414ZM38.2666 8.22683C38.5592 8.32239 38.7943 8.44691 38.7892 8.50371C38.7804 8.60117 33.8085 12.1863 33.5263 12.2986C33.4535 12.3277 33.3955 12.0073 33.3976 11.5866C33.4087 9.29164 36.0166 7.49206 38.2666 8.22683ZM60.4171 8.38283C61.4386 8.81667 61.9056 9.24639 62.3802 10.1891C62.9147 11.251 62.9014 12.1961 62.3366 13.2577C61.5352 14.7645 59.9317 15.5226 58.2367 15.1966C56.6695 14.8952 55.5656 13.8993 55.1709 12.431C54.4314 9.6796 57.6401 7.20346 60.4171 8.38283ZM85.8428 8.42761C87.2316 9.03343 88.116 10.2482 88.116 11.5501C88.116 14.7121 84.3783 16.4381 81.8759 14.4316C80.9051 13.6531 80.5157 12.8688 80.5157 11.6922C80.5157 9.02884 83.304 7.32007 85.8428 8.42761Z" fill="#979AA5"/>
</svg>
