<svg width="44" height="43" viewBox="0 0 44 43" fill="none" xmlns="http://www.w3.org/2000/svg">
<path fill-rule="evenodd" clip-rule="evenodd" d="M8.39534 0.00284648C7.58627 0.0302275 6.63961 0.237048 5.81997 0.565488C5.34082 0.757494 4.64662 1.14387 4.17852 1.47908C3.7215 1.80637 3.13928 2.34931 2.7612 2.80079C1.90975 3.81754 1.30983 5.07605 1.06586 6.35728C0.97469 6.836 0.94954 7.10938 0.940842 7.71629C0.922032 9.02811 0.898335 35.3708 0.91573 35.6351C0.99401 36.825 1.31647 37.9259 1.88573 38.9469C2.8336 40.6468 4.39091 41.9479 6.22561 42.5726C6.87149 42.7925 7.5592 42.9285 8.25383 42.9736C8.44443 42.986 13.4318 42.9946 22.574 42.9982C33.8874 43.0028 36.6401 42.9992 36.7999 42.9797C37.92 42.843 38.6862 42.6184 39.6089 42.1559C41.0476 41.4349 42.3007 40.1884 43.0437 38.7393C43.5518 37.7483 43.829 36.7257 43.8953 35.5974C43.9084 35.3745 43.9125 30.7288 43.9078 21.3124C43.9003 5.94356 43.9107 7.24426 43.7894 6.52056C43.5288 4.96555 42.774 3.49576 41.6525 2.35963C40.6301 1.32387 39.4178 0.620665 38.0366 0.262296C37.3508 0.084329 36.9003 0.0292652 36.0263 0.0165465C35.3968 0.00737549 8.65297 -0.00587167 8.39534 0.00284648ZM8.19093 23.5439C8.18402 25.7156 8.17836 29.159 8.17836 31.1958V34.8992H6.53379H4.88921L4.90178 31.1487C4.90868 29.0859 4.91432 25.6425 4.91434 23.4967V19.5952H6.55892H8.20349L8.19093 23.5439ZM14.197 21.5955V23.5769H15.1498H16.1026V24.6431V25.7093H15.1524H14.2023L14.193 28.8842C14.1878 30.6494 14.191 32.1254 14.2002 32.2084C14.2093 32.2905 14.2322 32.3924 14.251 32.4349C14.3211 32.5926 14.5029 32.7031 14.767 32.7483C15.0493 32.7967 15.7532 32.7898 16.0318 32.7361L16.0837 32.7261V33.8665V35.0068L15.5601 35.031C14.8895 35.0619 13.6014 35.0478 13.3008 35.0062C12.1722 34.8501 11.5499 34.4415 11.3047 33.6957C11.1592 33.2535 11.1698 33.5743 11.1639 29.422L11.1586 25.7093H10.3855H9.61227V24.6433V23.5773L10.3905 23.5724L11.1688 23.5675L11.1736 21.5908L11.1784 19.6141H12.6877H14.197V21.5955ZM37.5696 19.9323C37.4109 20.1073 36.9159 20.6547 36.4697 21.1487L35.6584 22.0469L34.5668 22.0477C33.5348 22.0484 33.4759 22.0466 33.4877 22.0154C33.501 21.9803 34.5452 19.9827 34.6715 19.7509L34.746 19.6141H36.3021H37.8582L37.5696 19.9323ZM23.2721 23.3022C24.6264 23.4278 25.6345 23.814 26.2973 24.4613C26.8337 24.9852 27.0836 25.5596 27.1399 26.398C27.1531 26.5954 27.1615 28.1181 27.1642 30.7966L27.1682 34.8933L26.6776 34.9056C26.4078 34.9124 25.8213 34.918 25.3743 34.918L24.5614 34.918L24.483 34.668C24.3803 34.3402 24.3381 34.1566 24.2985 33.8652C24.2806 33.7333 24.2633 33.6221 24.26 33.618C24.2568 33.6139 24.1484 33.7128 24.0192 33.8376C23.1773 34.6516 22.3383 35.0613 21.2409 35.1944C20.9085 35.2347 20.1834 35.2401 19.942 35.204C18.6803 35.0154 17.7859 34.4187 17.3288 33.4605C17.1026 32.9864 17.0078 32.5145 17.0086 31.8665C17.0097 30.8738 17.312 30.063 17.9134 29.4392C18.4652 28.867 19.2124 28.4989 20.159 28.3333C20.2783 28.3124 21.0382 28.1974 21.8476 28.0778C23.3689 27.8529 23.5172 27.8239 23.7514 27.7057C23.8818 27.6399 24.0487 27.4886 24.1141 27.3769C24.1916 27.2446 24.2203 27.0571 24.1964 26.8396C24.1608 26.5161 24.0684 26.3116 23.8687 26.1145C23.5753 25.8251 23.1517 25.6987 22.4042 25.6775C21.9838 25.6656 21.715 25.6914 21.4514 25.7689C20.977 25.9085 20.6408 26.2045 20.4664 26.6364C20.4213 26.748 20.3446 27.0359 20.3199 27.1859L20.3082 27.2566H18.8406H17.373L17.3984 27.048C17.4494 26.6276 17.5936 26.058 17.7365 25.7128C17.9561 25.1822 18.2071 24.8094 18.5978 24.4337C19.0499 23.9991 19.6574 23.679 20.3656 23.5023C20.8386 23.3843 21.0844 23.3486 21.8476 23.2874C22.0841 23.2684 23.0114 23.2781 23.2721 23.3022ZM32.5739 27.167C32.5741 29.3132 32.5815 30.8266 32.5926 30.9597C32.6717 31.9154 33.1044 32.464 33.9308 32.6567C34.1378 32.7049 34.6711 32.7248 34.8978 32.6927C35.1525 32.6566 35.3988 32.5824 35.6297 32.4721C36.3573 32.1245 36.7704 31.4867 36.8749 30.5495C36.8869 30.4421 36.8939 29.1324 36.894 26.9877L36.8942 23.5958H38.413H39.9318V29.2569V34.918H38.4696H37.0074V34.1255C37.0074 33.6523 37.0004 33.3329 36.9899 33.3329C36.9803 33.3329 36.9155 33.4199 36.8458 33.5263C36.3378 34.3018 35.6325 34.8206 34.747 35.0699C33.7091 35.3621 32.42 35.2684 31.5076 34.8343C31.1399 34.6594 30.921 34.509 30.6424 34.2398C30.0537 33.671 29.7088 32.92 29.5616 31.8862C29.534 31.6924 29.5288 31.417 29.5218 29.8041C29.5174 28.7818 29.5198 26.9667 29.5272 25.7706L29.5406 23.5958H31.0571H32.5736L32.5739 27.167ZM24.0863 29.4829C23.7439 29.6893 23.2905 29.8138 22.2627 29.9839C21.2209 30.1564 20.8014 30.3135 20.4507 30.6627C20.3185 30.7944 20.2645 30.8647 20.2103 30.9752C19.9908 31.4233 19.9977 32.0245 20.2271 32.4349C20.3712 32.6928 20.6574 32.9072 20.9986 33.0129C21.4048 33.1387 22.0025 33.0951 22.5646 32.8985C23.3135 32.6366 23.8884 32.1099 24.1045 31.4876C24.1962 31.2234 24.2009 31.1732 24.2098 30.3608C24.2145 29.9353 24.2155 29.5474 24.2121 29.4989L24.206 29.4107L24.0863 29.4829Z" fill="#979AA5"/>
</svg>
