<svg width="106" height="23" viewBox="0 0 106 23" fill="none" xmlns="http://www.w3.org/2000/svg">
<path fill-rule="evenodd" clip-rule="evenodd" d="M27.8938 0.0197461C26.4317 0.119599 25.1437 0.592851 24.0068 1.4479C23.6499 1.71632 23.0348 2.31835 22.755 2.6731C21.7879 3.89928 21.2044 5.40192 21.0097 7.16739C20.9573 7.64255 20.9651 9.00248 21.0228 9.47249C21.2377 11.2207 21.7785 12.6388 22.6987 13.8672C22.9606 14.2168 23.4441 14.7266 23.7884 15.0162C24.3278 15.4699 25.1099 15.921 25.7792 16.1644C26.1089 16.2844 26.6924 16.4317 27.0764 16.492C27.439 16.5489 28.4654 16.5711 28.8943 16.5312C30.6497 16.368 32.0751 15.7329 33.2629 14.5847C33.5074 14.3483 33.574 14.2962 33.5847 14.3328C33.592 14.3581 33.6394 14.6078 33.6898 14.8877C33.7403 15.1675 33.8047 15.4572 33.833 15.5315C33.9426 15.8201 34.1363 16.0053 34.4487 16.1203C34.6155 16.1817 34.6164 16.1817 35.7844 16.1817C36.815 16.1817 36.97 16.1765 37.095 16.1377C37.4061 16.041 37.6154 15.8306 37.7174 15.5121L37.7752 15.3318V8.27487C37.7752 1.36193 37.7742 1.21481 37.7254 1.06559C37.6291 0.771052 37.4416 0.570625 37.1531 0.453877C37.0061 0.394382 36.9923 0.393687 35.8321 0.386115C34.5752 0.377924 34.4571 0.387119 34.2133 0.5118C34.0509 0.594887 33.8669 0.782822 33.7828 0.951673C33.6942 1.12946 33.6454 1.34393 33.5859 1.81687L33.5429 2.15823L33.2682 1.89215C32.1417 0.800877 30.8437 0.203716 29.2598 0.047974C28.8809 0.0107062 28.2246 -0.00284126 27.8938 0.0197461ZM46.3548 0.0225018C43.7053 0.184167 41.5046 1.61492 40.3477 3.92792C39.901 4.82096 39.6251 5.7924 39.4934 6.9356C39.4314 7.47367 39.4312 8.61803 39.4931 9.15055C39.8246 12.0068 41.2107 14.1537 43.4264 15.2434C44.4975 15.7701 45.6846 15.9986 47.016 15.9345C48.0527 15.8846 48.9299 15.6685 49.7712 15.2558C50.4078 14.9434 50.939 14.5625 51.4998 14.016C51.6652 13.8549 51.8047 13.7228 51.8099 13.7225C51.8151 13.7223 51.8132 14.0669 51.8057 14.4883C51.7947 15.1054 51.7819 15.3097 51.7398 15.5378C51.5394 16.6239 51.0776 17.4517 50.362 18.0073C50.0944 18.2151 49.9977 18.2761 49.6915 18.4302C49.2253 18.6648 48.6667 18.8292 48.0461 18.9145C47.6386 18.9706 46.5252 18.9793 46.0979 18.9298C45.1148 18.8159 44.2346 18.5853 43.3203 18.2019C42.898 18.0249 42.744 17.9864 42.5275 18.0039C42.3145 18.021 42.1534 18.0979 42.0001 18.2558C41.8917 18.3673 41.7984 18.5346 41.3997 19.3323C41.1401 19.8518 40.909 20.3398 40.8862 20.4167C40.8343 20.5921 40.8328 20.893 40.8832 21.0362C40.9804 21.3123 41.2052 21.5035 41.7578 21.7796C43.0915 22.4462 44.6082 22.8356 46.3933 22.9698C46.9934 23.015 48.1217 23.0085 48.641 22.957C50.7766 22.745 52.5256 22.005 53.8873 20.7374C54.9872 19.7134 55.7662 18.2906 56.0778 16.7366C56.2546 15.8548 56.2408 16.5082 56.2508 8.5453C56.2575 3.23284 56.2522 1.30622 56.2306 1.19218C56.1725 0.885431 55.9693 0.611189 55.7093 0.488672C55.492 0.386217 55.3485 0.376894 54.1381 0.386578C53.0194 0.395541 52.9772 0.397678 52.828 0.453C52.5305 0.563336 52.2988 0.797168 52.1958 1.09124C52.1583 1.19807 52.0189 2.03455 52.0189 2.15236C52.0189 2.15885 51.8754 2.0252 51.7002 1.85532C50.5192 0.710785 49.1282 0.123849 47.3515 0.0204157C46.8775 -0.00719387 46.8397 -0.00709102 46.3548 0.0225018ZM64.8417 0.0209824C62.3455 0.190709 60.2717 1.49642 59.0342 3.67756C58.5766 4.48419 58.2242 5.49789 58.0561 6.49142C57.8671 7.60855 57.8676 8.92122 58.0575 10.052C58.6075 13.3259 60.7004 15.7621 63.5011 16.3881C64.124 16.5274 64.2845 16.5424 65.1323 16.5408C65.8226 16.5395 65.9781 16.5317 66.301 16.4819C67.8885 16.237 69.1704 15.6101 70.263 14.544C70.4063 14.4042 70.5262 14.2926 70.5295 14.2959C70.5328 14.2992 70.5775 14.5381 70.6289 14.8268C70.7585 15.5555 70.8122 15.6977 71.036 15.9045C71.1838 16.0411 71.3249 16.1122 71.5376 16.1574C71.7446 16.2014 73.6833 16.2106 73.9074 16.1687C74.2525 16.1042 74.537 15.876 74.6523 15.5712L74.7137 15.4091V8.27487V1.14067L74.6517 0.986134C74.5669 0.774761 74.3337 0.540877 74.1229 0.455885L73.9687 0.393764H72.71C71.4534 0.393764 71.4511 0.393867 71.3039 0.453464C71.0752 0.54608 70.9226 0.664219 70.8033 0.841029C70.6633 1.04851 70.6257 1.1794 70.5617 1.68153C70.5328 1.90817 70.5056 2.1059 70.5013 2.12094C70.4969 2.13595 70.3795 2.03911 70.2403 1.90575C69.2635 0.96996 68.2264 0.416815 66.9692 0.161117C66.358 0.0367964 65.4697 -0.0217197 64.8417 0.0209824ZM2.38417 0.421116C2.19308 0.467553 2.10291 0.515561 1.96174 0.646037C1.78837 0.80626 1.67216 1.07326 1.63432 1.39822C1.6261 1.46905 1.37149 4.55774 1.06856 8.26199C0.765655 11.9662 0.511375 15.0583 0.50354 15.1332C0.49568 15.2081 0.501357 15.3452 0.516127 15.4378C0.580757 15.8435 0.798688 16.071 1.2055 16.1574C1.45279 16.21 3.76553 16.21 4.01282 16.1574C4.42647 16.0695 4.6649 15.8386 4.766 15.428C4.78917 15.3338 4.88732 13.8941 5.03677 11.4556C5.1657 9.35208 5.27685 7.60322 5.28376 7.5693C5.29074 7.5351 5.30575 7.51789 5.31746 7.53067C5.3291 7.54334 5.9077 8.58522 6.60329 9.84594C7.29891 11.1067 7.91908 12.2214 7.9815 12.3232C8.17865 12.6447 8.46761 12.8543 8.82977 12.9385C8.97306 12.9718 9.17095 12.9768 10.0435 12.9693C11.0453 12.9606 11.0919 12.9581 11.238 12.9033C11.531 12.7933 11.7621 12.6002 11.9377 12.3184C11.9819 12.2476 12.6681 11.0712 13.4627 9.70428C14.2573 8.33732 14.9233 7.20193 14.9425 7.1812C14.9726 7.14887 14.9776 7.15882 14.9776 7.25061C14.9776 7.62486 15.3157 15.2347 15.3383 15.369C15.4172 15.8385 15.6988 16.1064 16.1814 16.1714C16.3021 16.1876 16.8868 16.1942 17.7005 16.1886C18.866 16.1806 19.0392 16.1742 19.1557 16.1353C19.4797 16.0271 19.6725 15.805 19.7319 15.4716C19.7613 15.307 19.7209 14.7575 19.2057 8.2998C18.8813 4.23423 18.6324 1.24776 18.6113 1.16647C18.4994 0.735382 18.2407 0.483289 17.8319 0.40677C17.6076 0.364815 15.5922 0.374009 15.3855 0.417922C15.068 0.485426 14.7789 0.675088 14.5804 0.946291C14.5296 1.01565 13.494 2.7567 12.2791 4.81529C11.0642 6.87388 10.0636 8.55586 10.0556 8.55302C10.0475 8.55019 9.11046 6.85228 7.9732 4.77988C6.83592 2.70749 5.86368 0.956902 5.81264 0.889707C5.63419 0.65469 5.35853 0.485633 5.04533 0.419107C4.7958 0.366103 2.60382 0.367751 2.38417 0.421116ZM77.6047 0.409011C77.3087 0.467192 77.0199 0.708209 76.9053 0.99265L76.8457 1.14067L76.838 5.90539C76.8327 9.14442 76.8391 10.7773 76.8578 11.0049C76.9563 12.1992 77.3035 13.216 77.9012 14.0612C78.1079 14.3535 78.6902 14.9326 78.9848 15.1391C79.8362 15.7355 80.8257 16.0699 82.0295 16.1678C82.4978 16.2059 88.113 16.2042 88.2946 16.1659C88.5928 16.103 88.8517 15.9127 88.9776 15.6638C89.082 15.4574 89.0897 15.3375 89.0811 14.044C89.073 12.8258 89.0721 12.8057 89.0143 12.6624C88.9121 12.4089 88.704 12.2121 88.4289 12.1085C88.3098 12.0637 88.1504 12.06 85.7592 12.0462C83.2884 12.0319 83.2099 12.03 82.9954 11.9773C82.1558 11.7715 81.7065 11.3043 81.4898 10.412C81.4498 10.2475 81.445 9.84655 81.4321 5.68647L81.4181 1.14067L81.3585 0.99265C81.2415 0.702389 80.9654 0.478395 80.6398 0.409629C80.4757 0.374988 77.7806 0.374448 77.6047 0.409011ZM90.8197 0.416454C90.428 0.514711 90.1626 0.799589 90.0877 1.20212C90.0532 1.38761 90.0535 9.29336 90.088 9.82018C90.1563 10.8616 90.3279 11.7521 90.615 12.5547C90.7496 12.9311 91.0769 13.6162 91.2588 13.9024C92.2223 15.4183 93.6548 16.3079 95.4724 16.5195C95.9171 16.5712 97.0046 16.5562 97.4598 16.4919C99.0278 16.2707 100.306 15.6174 101.241 14.5593C101.371 14.4116 101.482 14.2954 101.488 14.3009C101.493 14.3065 101.548 14.5413 101.609 14.8227C101.738 15.4111 101.795 15.583 101.921 15.748C102.094 15.9753 102.287 16.0977 102.564 16.1567C102.783 16.2032 104.631 16.211 104.872 16.1665C105.076 16.1289 105.267 16.0353 105.395 15.9105L105.5 15.8083V8.28867V0.769018L105.421 0.679183C105.327 0.571037 105.087 0.44633 104.898 0.407079C104.804 0.387479 104.312 0.380912 103.339 0.386269L101.917 0.394125L101.762 0.457199C101.55 0.54402 101.318 0.776873 101.234 0.986134L101.172 1.14067L101.157 5.13273C101.141 9.36264 101.145 9.24296 101.014 9.83103C100.627 11.5735 99.4413 12.5889 97.794 12.5889C96.1782 12.5889 95.1212 11.733 94.7473 10.122C94.6197 9.5718 94.6246 9.74348 94.6092 5.32589C94.5959 1.48609 94.5917 1.18275 94.5501 1.05951C94.4538 0.774272 94.2587 0.569235 93.9736 0.453877L93.8251 0.393764L92.3866 0.388999C91.3072 0.385445 90.916 0.392296 90.8197 0.416454ZM30.3002 4.0634C31.0722 4.22913 31.6683 4.54376 32.1768 5.05389C32.9007 5.78019 33.2821 6.76293 33.3354 8.03941C33.3715 8.90314 33.2058 9.76749 32.8696 10.47C32.6772 10.8721 32.4527 11.1902 32.1369 11.5088C31.6194 12.0308 31.0269 12.3445 30.236 12.5152C30.0021 12.5657 29.8894 12.5736 29.3883 12.5744C28.9347 12.5752 28.7605 12.5656 28.5791 12.5296C27.7299 12.3612 27.1256 12.0514 26.5883 11.509C25.8246 10.738 25.4324 9.65826 25.4324 8.32638C25.4324 6.96086 25.8416 5.84908 26.638 5.05054C27.1822 4.50494 27.8772 4.16214 28.7185 4.0244C29.0576 3.9689 29.9641 3.99123 30.3002 4.0634ZM48.5737 4.02556C50.6419 4.3203 51.8128 5.75876 51.8124 8.00444C51.8121 10.127 50.4873 11.7323 48.4866 12.0347C47.9989 12.1084 47.2331 12.0738 46.7716 11.9572C45.6303 11.6689 44.7964 11.0106 44.3255 10.0262C44.0899 9.53376 43.9698 9.06439 43.9219 8.44874C43.841 7.41052 44.0769 6.39437 44.5764 5.62857C45.1428 4.76026 46.0687 4.18751 47.1641 4.02773C47.4964 3.97925 48.2408 3.97812 48.5737 4.02556ZM67.0201 4.02597C68.29 4.2069 69.2569 4.89354 69.8151 6.01067C70.1404 6.66156 70.2907 7.37557 70.2893 8.26199C70.286 10.2923 69.341 11.8008 67.7178 12.3673C67.2395 12.5342 66.9574 12.5759 66.3139 12.5746C65.7984 12.5736 65.7197 12.5673 65.4179 12.5031C64.6763 12.3453 64.1135 12.0566 63.6142 11.5781C62.7969 10.7946 62.3966 9.72105 62.3966 8.31244C62.3966 8.05201 62.4132 7.72631 62.4349 7.56147C62.6914 5.61306 63.8895 4.30529 65.6724 4.02752C65.9843 3.97892 66.6842 3.97812 67.0201 4.02597Z" fill="#979AA5"/>
</svg>
