<svg width="155" height="29" viewBox="0 0 155 29" fill="none" xmlns="http://www.w3.org/2000/svg">
<path fill-rule="evenodd" clip-rule="evenodd" d="M13.7545 0.508326C13.0343 0.570425 12.6496 0.616166 12.1936 0.694061C8.34404 1.35151 4.98969 3.52908 2.82698 6.77465C1.55625 8.68167 0.815323 10.7378 0.547561 13.1006C0.484146 13.6602 0.484146 15.3483 0.547561 15.9079C0.622447 16.5687 0.761839 17.3488 0.909241 17.9319C1.62094 20.7473 3.24016 23.3297 5.46214 25.1931C7.65543 27.0324 10.2376 28.1268 13.1527 28.4523C13.7187 28.5155 15.3739 28.516 15.9733 28.4532C18.7175 28.1655 21.2481 27.1357 23.4021 25.4302C23.9163 25.0231 25.1122 23.8382 25.5136 23.3381C26.61 21.9724 27.3826 20.5784 27.914 19.0069C28.2875 17.9022 28.5205 16.7992 28.6139 15.6925C28.6719 15.0058 28.6393 13.316 28.5568 12.7333C28.202 10.2255 27.3196 8.06211 25.8616 6.12555C25.373 5.47668 24.9776 5.03345 24.3196 4.39723C22.0997 2.25072 19.1641 0.89226 16.0301 0.561254C15.6385 0.519892 14.0493 0.482947 13.7545 0.508326ZM37.0366 14.5029V25.6401H38.6539H40.2712V20.2869V14.9337L41.5569 14.9436L42.8425 14.9534L46.2678 20.296L49.6931 25.6385L51.4703 25.6393C52.4477 25.6397 53.2475 25.6332 53.2475 25.6247C53.2475 25.6162 51.6725 23.1971 49.7476 20.249C47.8226 17.3008 46.2549 14.8815 46.2637 14.8727C46.2726 14.8639 46.4808 14.8152 46.7265 14.7646C49.0885 14.2775 50.7207 13.1842 51.5547 11.5303C51.7246 11.1934 51.9482 10.4946 52.0284 10.0499C52.1201 9.54136 52.1233 8.46371 52.0346 7.99118C51.6295 5.83479 49.9431 4.22475 47.4522 3.61652C46.4919 3.38205 46.742 3.39235 41.6723 3.37838L37.0366 3.36562V14.5029ZM57.6858 14.5043V25.6401H63.7413H69.7969V24.8728V24.1054H65.3585H60.9201L60.9297 19.5107L60.9392 14.916L64.8979 14.9065L68.8566 14.8969V14.1487V13.4004L64.8979 13.3909L60.9392 13.3813L60.9297 9.14234L60.9201 4.90338L65.2175 4.89387L69.5148 4.88436L69.525 4.12638L69.5352 3.36839H63.6105H57.6858V14.5043ZM75.1379 14.5043V25.6401H76.0781H77.0184L77.0278 17.3864L77.0373 9.13272L83.6769 17.377L90.3165 25.6214L91.0395 25.6316L91.7626 25.6417V14.5051V3.36839H90.8223H89.8821L89.8726 11.6187L89.8631 19.8689L83.2246 11.6196L76.586 3.37022L75.8619 3.36933L75.1379 3.36839V14.5043ZM98.2319 14.5043V25.6401H99.1533H100.075L100.084 17.3771L100.094 9.11412L106.749 17.3771L113.403 25.6401H114.111H114.819V14.5043V3.36839H113.897H112.976V11.6305V19.8927L112.887 19.7999C112.838 19.749 109.84 16.031 106.225 11.5378L99.6526 3.36839H98.9422H98.2319V14.5043ZM121.063 14.5043V25.6401H127.118H133.174V24.8728V24.1054H128.736H124.297V19.5014V14.8973H128.265H132.233V14.1488V13.4004L128.275 13.3909L124.316 13.3813L124.307 9.14234L124.297 4.90338L128.594 4.89387L132.892 4.88436L132.902 4.12638L132.912 3.36839H126.987H121.063V14.5043ZM138.289 14.5029V25.6401H139.925H141.561V20.2874V14.9347L142.831 14.9364L144.1 14.9382L147.523 20.2798L150.946 25.6214L152.723 25.6311C153.7 25.6365 154.5 25.6311 154.5 25.6193C154.5 25.6074 152.937 23.2027 151.027 20.2755C149.117 17.3484 147.542 14.9329 147.527 14.9077C147.511 14.8787 147.532 14.8557 147.587 14.8447C148.967 14.5677 149.828 14.2725 150.635 13.7999C152.061 12.9648 152.919 11.7831 153.264 10.1809C153.378 9.64782 153.39 8.42441 153.285 7.93971C153.052 6.86516 152.617 6.05799 151.868 5.31411C150.882 4.3336 149.648 3.7506 147.937 3.4559C147.597 3.3974 147.112 3.38991 142.925 3.37838L138.289 3.36562V14.5029ZM44.9927 4.95822C46.062 5.13081 47.0264 5.61652 47.6847 6.31402C48.9671 7.67286 49.1257 9.78059 48.0608 11.3136C47.8706 11.5874 47.4015 12.0776 47.1543 12.2609C46.5137 12.7358 45.7278 13.0762 44.8787 13.2467C44.2574 13.3714 43.588 13.404 41.8886 13.3923L40.29 13.3813L40.2805 9.14219L40.2709 4.90308L42.462 4.90323C44.2058 4.90334 44.7224 4.91457 44.9927 4.95822ZM146.507 4.99134C148.327 5.42615 149.475 6.46539 149.92 8.07775C149.985 8.31638 149.999 8.4773 150.002 9.02054C150.005 9.58347 149.993 9.72197 149.921 10.0053C149.435 11.9009 147.712 13.1532 145.304 13.3604C145.056 13.3818 144.112 13.3994 143.207 13.3996L141.561 13.4V9.14949V4.89892L143.903 4.91367C145.932 4.92644 146.279 4.93677 146.507 4.99134ZM22.2737 5.66803C23.1377 5.89647 23.7792 6.53356 24.0662 7.44842C24.142 7.68974 24.1541 7.80537 24.1531 8.27191C24.1519 8.7833 24.1449 8.83462 24.0319 9.1599C23.797 9.83614 23.5322 10.2587 23.0754 10.6864C22.6273 11.1059 22.1595 11.3394 21.6121 11.4166C20.5342 11.5688 19.5977 10.7854 19.2666 9.4546C19.1658 9.04981 19.1462 9.0156 18.9658 8.93041C18.7045 8.80699 18.2408 8.88953 17.9484 9.11146C17.4523 9.48806 15.8978 11.5827 14.9878 13.1006C13.8187 15.0508 12.5981 17.6475 10.7929 22.0243C10.5694 22.5661 10.4762 22.7503 10.3949 22.8104C10.2897 22.8882 10.2665 22.8889 7.91895 22.8889H5.54922L5.42047 22.7491C5.33313 22.6542 5.29172 22.5728 5.29172 22.4959C5.29172 22.4335 5.91797 20.6899 6.68334 18.6213C8.50807 13.6896 9.74837 10.3152 9.884 9.91336C10.0922 9.29664 9.99383 8.99898 9.58679 9.01388C9.2555 9.02601 8.68665 9.46744 7.62753 10.5343C7.20555 10.9594 6.82928 11.3237 6.7914 11.3438C6.54008 11.4777 6.18201 11.0075 6.25054 10.6335C6.28179 10.4628 6.35367 10.3412 6.67887 9.90879C8.23613 7.83778 10.7498 6.06948 12.5389 5.78642C13.0754 5.70153 13.8169 5.70722 14.1774 5.799C15.0483 6.02063 15.4198 6.48636 15.4781 7.4297C15.5236 8.16796 15.4346 8.9005 15.1688 9.97486C15.0975 10.263 15.0422 10.5017 15.0459 10.5053C15.0495 10.509 15.2082 10.2817 15.3984 10.0002C16.4622 8.42617 17.6545 7.20583 18.8173 6.50095C19.5566 6.05279 20.2788 5.75554 20.9217 5.63483C21.2868 5.56625 21.9504 5.58257 22.2737 5.66803Z" fill="#979AA5"/>
</svg>
