<svg width="187" height="33" viewBox="0 0 187 33" fill="none" xmlns="http://www.w3.org/2000/svg">
<path fill-rule="evenodd" clip-rule="evenodd" d="M17.5822 0.894038C16.5844 2.82773 16.4885 5.24179 17.3311 7.21767C17.4494 7.49522 18.5736 9.50098 19.8294 11.6749C21.0852 13.8489 22.1923 15.7869 22.2895 15.9816C22.5407 16.4846 22.7504 17.1292 22.8943 17.8412C23.0628 18.6748 23.0108 20.2797 22.788 21.121C22.6343 21.7015 22.0237 23.0851 21.8618 23.2199C21.8028 23.2688 21.7308 23.1235 21.6142 22.7203C21.3652 21.8594 21.0898 21.3467 17.6311 15.3051C15.8694 12.2278 14.3548 9.56511 14.2653 9.38798C14.1758 9.21085 13.9945 8.73482 13.8624 8.32999L13.6222 7.59401L13.2443 8.35752C12.6794 9.49863 12.4813 10.3443 12.4791 11.6241C12.4755 13.6648 12.6105 13.9919 15.5745 19.1244C16.8803 21.3854 18.0464 23.4719 18.1659 23.761C18.8291 25.3651 18.8999 27.3151 18.3535 28.9301C18.1629 29.4933 17.6159 30.618 17.5325 30.618C17.5043 30.618 17.3903 30.3347 17.2793 29.9886C16.9944 29.1003 16.8354 28.8065 13.8352 23.6241C12.3585 21.0732 11.0393 18.7314 10.9038 18.4201C10.5706 17.6556 10.3087 16.5827 10.2497 15.7419C10.2229 15.3599 10.1913 15.0474 10.1794 15.0474C10.0482 15.0474 8.23049 15.6481 7.57895 15.9068C2.22359 18.0332 -0.406281 21.6755 0.864262 25.2066C2.20758 28.9397 7.4956 31.8113 14.4454 32.5816C15.0084 32.644 16.2149 32.6783 17.7868 32.6764C20.4983 32.6732 21.541 32.5767 23.7444 32.125C29.0048 31.0464 32.996 28.5677 34.2849 25.5789C35.6223 22.478 34.0618 19.383 30.0021 17.0844C28.9043 16.4628 26.7776 15.6156 25.4575 15.2739L25.1603 15.197L25.0691 14.5648C24.9647 13.8409 24.684 12.8964 24.4144 12.3615C24.3127 12.1598 22.9728 9.79112 21.4369 7.09774C18.7801 2.4388 18.2752 1.47563 18.0691 0.67318C18.0197 0.480811 17.9562 0.323486 17.9279 0.323486C17.8997 0.323486 17.7441 0.580198 17.5822 0.894038ZM47.8594 9.05698C45.6051 9.30177 43.7375 10.1488 42.7812 11.3603C42.3338 11.927 41.9113 12.7969 41.7514 13.4803C41.5666 14.2701 41.5669 15.8256 41.7519 16.6164C42.2767 18.8609 44.0869 20.4807 47.529 21.7857C48.0338 21.9772 48.9096 22.3648 49.4751 22.6471C51.1061 23.4614 51.8286 24.0505 52.2515 24.9109C52.4679 25.3511 52.486 25.4447 52.486 26.1256C52.486 26.7846 52.464 26.9082 52.2804 27.2832C51.6949 28.4784 50.2633 29.0437 47.8227 29.0435C45.8388 29.0433 43.8854 28.6533 42.081 27.8971C41.9794 27.8544 41.931 27.9306 41.8098 28.324C41.6033 28.9944 41.4523 29.7773 41.3924 30.489L41.3413 31.0962L41.7455 31.2754C42.6521 31.6773 44.0338 32.0318 45.3993 32.2127C46.4538 32.3524 49.3118 32.3341 50.1736 32.1821C53.3602 31.6201 55.3639 30.0687 55.9685 27.695C56.2686 26.5166 56.2264 25.1449 55.8555 24.029C55.1777 21.9894 53.4697 20.6252 49.5852 19.0209C46.9047 17.9138 45.9922 17.2988 45.4238 16.2167C45.2318 15.8512 45.2157 15.7575 45.2157 15.0106C45.2157 14.2758 45.2338 14.1664 45.4111 13.8297C45.8013 13.0885 46.5564 12.5837 47.6391 12.34C49.0598 12.0202 52.225 12.3403 54.132 12.9968C54.3507 13.0721 54.5351 13.1254 54.5417 13.1151C54.67 12.9171 55.0343 11.1888 55.1273 10.3358L55.1715 9.93085L54.4897 9.73082C52.8273 9.24302 51.7001 9.08187 49.7321 9.05036C48.8637 9.03644 48.021 9.03939 47.8594 9.05698ZM97.5766 9.28299C97.132 9.32349 96.0873 9.51865 95.6095 9.65043L95.1846 9.76771L95.2094 18.9045C95.2376 29.198 95.1953 28.4431 95.8155 29.7393C96.5702 31.3172 98.0806 32.1429 100.404 32.2478C101.435 32.2944 102.47 32.17 103.285 31.902L103.769 31.7426L103.846 31.3075C103.981 30.5402 104.172 28.8857 104.13 28.8442C104.108 28.8221 103.872 28.8714 103.606 28.9538C102.985 29.146 101.679 29.2813 101.065 29.2169C100.004 29.1054 99.2722 28.6004 98.9274 27.7425L98.7516 27.3051L98.7306 22.8327L98.7096 18.3603H101.351C103.803 18.3603 103.995 18.351 104.032 18.2315C104.087 18.0518 104.296 15.9994 104.296 15.6384V15.3419H101.506H98.7149V12.2867V9.23146L98.2926 9.24383C98.0604 9.25068 97.7382 9.26827 97.5766 9.28299ZM155.042 9.28233C154.611 9.31509 153.819 9.43244 153.354 9.53242L152.985 9.61178V12.2942V14.9766L152.82 14.9401C151.878 14.7316 149.577 14.6909 148.395 14.8619C144.424 15.4365 142.151 17.6501 141.478 21.5987C141.311 22.5774 141.313 24.7815 141.481 25.7223C141.855 27.8055 142.574 29.2868 143.76 30.4162C145.14 31.7297 147.159 32.3732 149.189 32.1458C150.766 31.9691 151.87 31.3491 152.785 30.1261L153.042 29.7815L153.089 30.347C153.115 30.6579 153.156 31.1195 153.18 31.3726L153.223 31.8327H154.83H156.437V20.5321V9.23146L155.904 9.24434C155.612 9.25141 155.223 9.26849 155.042 9.28233ZM65.8149 14.7988C64.5734 14.9576 63.4373 15.2807 62.5469 15.7284C61.7648 16.1216 61.3972 16.3793 60.7946 16.957C59.5383 18.1613 58.7788 19.8045 58.4992 21.9226C58.3473 23.0737 58.3993 25.067 58.608 26.093C59.2553 29.2764 61.0374 31.3266 63.7365 31.9933C64.5882 32.2037 66.2661 32.2236 66.9899 32.032C68.0625 31.7479 69.2017 30.9973 69.7385 30.2208C69.8534 30.0546 69.9718 29.9186 70.0017 29.9186C70.0316 29.9186 70.0849 30.341 70.1203 30.8572L70.1844 31.7959L71.8184 31.8157L73.4524 31.8355V23.7467V15.6578L72.92 15.5C72.1488 15.2714 71.1863 15.0709 70.2212 14.9376C69.4086 14.8255 66.3577 14.7294 65.8149 14.7988ZM82.2649 14.7992C81.0161 14.9541 79.6804 15.1709 78.6685 15.3829C78.0032 15.5223 77.4496 15.6364 77.4384 15.6364C77.4272 15.6364 77.418 19.2805 77.418 23.7345V31.8327H79.1438H80.8696V24.9576V18.0825L81.1817 18.0372C82.5486 17.8384 84.0279 17.7938 85.0386 17.9208C86.6333 18.1213 87.4665 18.6851 87.8639 19.8327C88.0289 20.3095 88.0296 20.3312 88.0663 26.0535L88.1032 31.7959L89.8473 31.8156L91.5915 31.8353L91.5913 26.1469C91.5911 22.5459 91.562 20.2153 91.512 19.7959C91.1799 17.0128 89.5998 15.5265 86.3407 14.9318C85.7004 14.815 82.8777 14.7231 82.2649 14.7992ZM112.345 14.864C109.355 15.3534 107.325 16.7679 106.242 19.118C105.664 20.3722 105.398 21.8109 105.398 23.6703C105.399 25.4936 105.627 26.7492 106.198 28.0781C107.067 30.0981 108.565 31.4175 110.607 31.9617C111.204 32.1206 111.475 32.1496 112.411 32.1541C113.341 32.1586 113.602 32.1338 114.085 31.9953C115.174 31.6834 116.009 31.1348 116.636 30.3209L116.963 29.896L117.015 30.1097C117.043 30.2273 117.093 30.6548 117.125 31.0597L117.184 31.7959H118.8H120.416L120.434 23.7263L120.453 15.6566L119.773 15.4663C118.154 15.013 116.755 14.8277 114.651 14.788C113.428 14.7651 112.829 14.7847 112.345 14.864ZM128.604 14.8663C127.587 14.995 126.386 15.2046 125.171 15.4654L124.271 15.6585V23.7456V31.8327H126.034H127.796V24.9568V18.0811L128.439 17.9839C129.454 17.8303 131.813 17.8507 132.533 18.0193C134.001 18.3631 134.685 19.0776 134.917 20.5109C134.963 20.7954 134.992 23.0668 134.992 26.4046L134.993 31.8353L136.774 31.8156L138.555 31.7959L138.576 26.3848C138.599 20.7367 138.563 19.7808 138.296 18.815C137.949 17.559 137.087 16.4298 136.021 15.8366C135.41 15.4966 134.197 15.0942 133.304 14.9357C132.329 14.7625 129.728 14.7241 128.604 14.8663ZM165.433 14.8704C164.177 15.0936 163.075 15.5602 162.186 16.2459C160.652 17.4296 159.695 19.4517 159.444 22.0449C159.294 23.5829 159.445 25.4424 159.823 26.7161C160.69 29.6405 162.713 31.3609 165.984 31.955C167.028 32.1447 169.404 32.1266 170.537 31.9202C171.523 31.7407 172.537 31.4563 173.02 31.2239C173.315 31.0821 173.37 31.0195 173.425 30.7652C173.505 30.3924 173.897 27.9735 173.88 27.9504C173.874 27.9409 173.59 28.0511 173.249 28.1951C171.114 29.0983 168.143 29.4067 166.258 28.9205C165.114 28.6253 164.107 27.8627 163.61 26.9152C163.373 26.4638 162.973 25.2691 162.973 25.0146C162.973 24.9283 163.852 24.9124 168.624 24.9124H174.275L174.334 24.6364C174.366 24.4846 174.392 23.5155 174.391 22.483C174.39 20.7931 174.374 20.5417 174.228 19.9647C173.482 17.0103 171.701 15.3325 168.811 14.8613C167.982 14.7261 166.219 14.7309 165.433 14.8704ZM181.369 14.8684C180.312 15.0015 178.924 15.2767 178.193 15.498L177.66 15.6592V23.7459V31.8327H179.423H181.185V24.9187V18.0048L181.754 17.9456C182.489 17.8693 184.847 17.8653 185.711 17.939C186.297 17.9889 186.388 17.9809 186.428 17.8764C186.521 17.6329 186.7 15.8738 186.679 15.4131L186.656 14.937L186.252 14.8874C186.03 14.8601 185.039 14.8198 184.049 14.7977C182.684 14.7672 182.037 14.7843 181.369 14.8684ZM168.18 17.8111C169.785 18.1903 170.828 19.5774 170.918 21.4523L170.941 21.9308L166.947 21.9499L162.952 21.9689L163.002 21.545C163.288 19.1022 164.767 17.7238 167.122 17.7046C167.445 17.7021 167.921 17.7499 168.18 17.8111ZM69.7622 17.9584L69.9274 18.0093V23.0821V28.1549L69.479 28.4454C68.5621 29.0396 67.4545 29.3568 66.2923 29.3581C64.2231 29.3604 62.7849 28.1711 62.2072 25.9799C61.9857 25.1395 61.9283 23.0147 62.1022 22.0873C62.4613 20.1713 63.4285 18.8861 64.989 18.2513C65.8006 17.9211 66.4284 17.8455 68.0915 17.878C68.9195 17.8941 69.6713 17.9304 69.7622 17.9584ZM116.689 17.9584L116.854 18.0093V23.077V28.1446L116.522 28.3736C115.629 28.9893 114.495 29.3376 113.329 29.3543C112.011 29.3731 111.129 29.0447 110.323 28.2342C109.498 27.405 109.079 26.3301 108.906 24.5996C108.687 22.4024 109.244 20.3905 110.39 19.243C111.078 18.5543 111.861 18.1642 112.988 17.9488C113.532 17.845 116.345 17.8522 116.689 17.9584ZM152.196 18.0311L152.985 18.1579V23.1471V28.1364L152.636 28.3604C151.358 29.1813 149.732 29.5477 148.469 29.299C146.233 28.8589 144.993 26.8927 144.983 23.7694C144.973 20.8379 146.036 18.9133 148.077 18.1682C149.014 17.8263 150.594 17.7737 152.196 18.0311Z" fill="#979AA5"/>
</svg>
