<svg width="74" height="29" viewBox="0 0 74 29" fill="none" xmlns="http://www.w3.org/2000/svg">
<path fill-rule="evenodd" clip-rule="evenodd" d="M15.8062 0.0105131C13.0861 0.130346 10.8345 0.711609 8.95501 1.77913C7.48202 2.61574 6.24382 3.80576 5.39934 5.1964C4.67883 6.3829 4.23511 7.6759 4.0555 9.11245C4.00724 9.49831 4.00711 10.4924 4.05527 10.8477C4.15823 11.6073 4.32857 12.1696 4.65277 12.8199C5.52946 14.5785 7.29583 15.9195 9.83651 16.7552C10.4116 16.9444 10.7839 17.0456 12.2319 17.4066C13.493 17.721 13.9347 17.8405 14.3836 17.9888C15.5852 18.3857 16.2544 18.8269 16.5252 19.4004C16.6298 19.622 16.6644 19.7792 16.665 20.0357C16.6655 20.2917 16.6318 20.4446 16.5242 20.6742C16.3191 21.1122 15.9579 21.4455 15.4067 21.7053C14.7377 22.0206 13.9893 22.1584 12.9406 22.1592C9.78818 22.1617 6.91487 21.139 4.94689 19.3138L4.72245 19.1056L4.39915 19.4995C4.22135 19.7162 3.24488 20.909 2.22924 22.1501C1.2136 23.3913 0.327787 24.4724 0.260755 24.5525L0.138916 24.6982L0.346682 24.9223C0.96628 25.5907 1.81605 26.2523 2.76824 26.8077C3.13581 27.0221 3.99816 27.4466 4.40379 27.6128C6.00001 28.2669 7.63695 28.6683 9.57781 28.8814C11.0155 29.0392 12.8788 29.0396 14.3612 28.8823C17.9673 28.4996 20.5897 27.1991 22.4485 24.8715C23.0453 24.1241 23.6297 23.1506 24.0482 22.2068C24.1195 22.0458 24.1808 21.917 24.1844 21.9205C24.1879 21.9241 23.9276 23.3112 23.6058 25.0031C23.284 26.695 23.0207 28.0872 23.0207 28.0968C23.0207 28.1074 24.6634 28.1143 27.2053 28.1143H31.3899L31.4002 28.0527C31.4566 27.7125 33.3551 17.3432 33.3657 17.3168C33.3764 17.2903 34.1153 18.649 36.2919 22.6978L39.2039 28.1142L44.1833 28.1143L49.1627 28.1143L49.1006 28.0053C49.0664 27.9453 47.3877 25.0175 45.3701 21.4991C43.3525 17.9807 41.7057 15.0921 41.7106 15.0798C41.7227 15.0497 47.2162 8.80198 47.2365 8.79528C47.2639 8.78625 51.4881 16.3743 51.4811 16.42C51.4777 16.4425 50.9582 19.0751 50.3266 22.2702C49.695 25.4653 49.1782 28.0873 49.1782 28.0969C49.1782 28.1074 50.8162 28.1143 53.3079 28.1143C55.5792 28.1143 57.4375 28.1093 57.4375 28.1033C57.4375 28.0972 57.8948 25.7368 58.4538 22.8579L59.47 17.6234L62.1774 14.3019C63.6665 12.4751 66.7387 8.70602 69.0045 5.92625C71.2703 3.14646 73.1308 0.861538 73.1388 0.848661C73.1504 0.830077 72.1515 0.825298 68.3185 0.82562L63.4834 0.826037L60.2431 5.17209C58.461 7.56244 56.995 9.52044 56.9854 9.52323C56.9758 9.52604 55.9536 7.57224 54.7136 5.1815L52.4593 0.834704L48.2919 0.829925L44.1245 0.825127L41.157 4.39514C39.5248 6.35863 37.3143 9.01814 36.2447 10.3052C35.1751 11.5922 34.2972 12.6368 34.2937 12.6266C34.2903 12.6164 34.8265 9.98462 35.4853 6.77824C36.1441 3.57188 36.6887 0.920762 36.6955 0.886855L36.7079 0.825222H32.5184C30.2141 0.825222 28.3288 0.828787 28.3288 0.83313C28.3288 0.844489 27.8882 3.20239 27.8829 3.21928C27.8805 3.22704 27.7535 3.14551 27.6006 3.03814C24.9735 1.19217 21.9813 0.238042 18.1628 0.0286805C17.6567 0.000936287 16.2668 -0.00977832 15.8062 0.0105131ZM26.3059 11.1796C25.6587 14.5015 25.1234 17.2409 25.1163 17.2669C25.1069 17.3015 25.0965 17.2682 25.0778 17.1437C24.7111 14.7012 23.2635 13.0129 20.5572 11.8716C19.4096 11.3875 18.1534 11.0204 16.0166 10.5448C15.03 10.3251 14.3871 10.1688 14.0236 10.0603C12.9846 9.74987 12.5421 9.42284 12.4317 8.8836C12.361 8.53824 12.4639 8.06771 12.6828 7.73622C12.7855 7.58057 13.0579 7.31388 13.2188 7.21145C13.9017 6.77663 14.8084 6.6124 16.2339 6.66535C17.0342 6.69508 17.5355 6.74365 18.2012 6.85596C19.9334 7.14823 21.7369 7.83491 23.768 8.97553C23.963 9.08503 24.1277 9.1774 24.134 9.1808C24.1403 9.18421 24.8944 8.27446 25.8098 7.15913C26.7252 6.04383 27.4761 5.13316 27.4784 5.13545C27.4807 5.13775 26.9531 7.85761 26.3059 11.1796Z" fill="#979AA5"/>
</svg>
