<svg width="42" height="43" viewBox="0 0 42 43" fill="none" xmlns="http://www.w3.org/2000/svg">
<path fill-rule="evenodd" clip-rule="evenodd" d="M16.603 0.076803L0.090332 0.0997079V21.5499V43H20.5903H41.0903V21.5V0L37.103 0.0269036C34.91 0.0417189 25.685 0.0641691 16.603 0.076803ZM30.953 16.1969C34.268 16.6067 36.3955 18.2756 37.1391 21.0497C37.4294 22.1326 37.4308 24.2137 37.1419 25.2266C36.6962 26.7892 35.709 28.0936 34.3608 28.9011L33.7138 29.2886L34.0147 30.1228C35.3283 33.7638 36.041 35.6166 36.8637 37.5284C37.1564 38.2086 37.3958 38.7976 37.3958 38.8374C37.3958 38.8773 35.4371 38.9099 33.0432 38.9099H28.6906L28.1656 37.2057C27.8769 36.2684 27.2973 34.3971 26.8778 33.0474C26.4582 31.6977 25.8137 29.6117 25.4457 28.4119C25.0776 27.2122 24.7576 26.1692 24.7345 26.0942C24.6984 25.9768 24.9021 25.9576 26.2008 25.9559C27.5555 25.954 27.7595 25.933 28.2046 25.7493C29.12 25.3713 29.4664 24.9036 29.4638 24.0491C29.4592 22.5179 28.4931 21.9705 25.89 22.0243L24.6692 22.0495L23.7917 24.1855C22.9064 26.3405 21.7272 29.3726 19.5645 35.0552C18.9159 36.7593 18.3015 38.3445 18.1992 38.578L18.013 39.0024L13.364 38.9789L8.71493 38.9553L8.1594 37.4556C7.85393 36.6308 7.32724 35.1992 6.98915 34.2744C6.44948 32.7983 5.80817 31.0931 4.85264 28.5937C4.53338 27.7585 3.48054 25.1437 2.64513 23.1108C2.33028 22.3447 2.07275 21.6801 2.07275 21.6338C2.07275 21.5833 3.72807 21.5496 6.20177 21.5496H10.3309L11.2866 24.6172C11.8122 26.3044 12.5189 28.5714 12.8569 29.6549C13.195 30.7384 13.4843 31.5973 13.4997 31.5636C13.5151 31.5299 14.6733 28.0665 16.0734 23.8674L18.6192 16.2325L18.9289 16.1763C19.5011 16.0724 30.0932 16.0906 30.953 16.1969Z" fill="#979AA5"/>
</svg>
